<?xml version="1.0" encoding="UTF-8"?>
<svg width="106px" height="27px" viewBox="0 0 106 27" version="1.1" xmlns="http://www.w3.org/2000/svg" xmlns:xlink="http://www.w3.org/1999/xlink">
    <!-- Generator: Sketch 42 (36781) - http://www.bohemiancoding.com/sketch -->
    <title>Skyline</title>
    <desc>Created with Sketch.</desc>
    <defs></defs>
    <g id="Page-1" stroke="none" stroke-width="1" fill="none" fill-rule="evenodd">
        <g id="HomePage" transform="translate(-99.000000, -37.000000)" fill="#000B24">
            <path d="M108.443034,58.8771346 C112.871248,58.8771346 115.979795,56.589713 115.979795,52.5134105 C115.979795,48.8769967 113.633722,47.3813749 109.469442,46.2963159 C105.921006,45.3872125 105.041228,44.9473237 105.041228,43.5983315 C105.041228,42.5425984 105.950331,41.7507987 107.680561,41.7507987 C109.088205,41.7507987 110.495849,42.2493393 111.991471,43.1291168 C112.343382,43.3343982 112.695293,43.4517019 113.135181,43.4517019 C114.308218,43.4517019 115.246647,42.5425984 115.246647,41.3695617 C115.246647,40.4897842 114.748107,39.8739399 114.249566,39.5806808 C112.402033,38.407644 110.231915,37.7624739 107.739212,37.7624739 C103.545606,37.7624739 100.554363,40.2258509 100.554363,43.9502425 C100.554363,48.0851969 103.223021,49.2289077 107.357976,50.2846407 C110.789108,51.1644182 111.49293,51.7509366 111.49293,52.8946474 C111.49293,54.1556618 110.378545,54.8888098 108.531012,54.8888098 C106.53685,54.8888098 104.835947,54.1849878 103.281673,53.041277 C102.988414,52.8359956 102.577851,52.6307141 101.991333,52.6307141 C100.818296,52.6307141 99.8798665,53.5398176 99.8798665,54.7128543 C99.8798665,55.4166763 100.231778,56.0618465 100.730318,56.4137575 C103.01774,58.0560089 105.74505,58.8771346 108.443034,58.8771346 Z M119.440254,56.5310612 C119.440254,57.7627497 120.437335,58.7598309 121.669023,58.7598309 C122.900712,58.7598309 123.897793,57.7627497 123.897793,56.5310612 L123.897793,53.9797063 L125.686674,52.3667809 L129.587021,57.7334238 C130.114888,58.4665717 130.642754,58.7598309 131.522532,58.7598309 C132.636917,58.7598309 133.604672,57.9387052 133.604672,56.7363426 C133.604672,56.237802 133.428716,55.8272392 133.047479,55.2993726 L128.853873,49.6394705 L132.372983,46.618901 C132.988828,46.0323826 133.39939,45.4458643 133.39939,44.6833904 C133.39939,43.6569833 132.636917,42.689228 131.434554,42.689228 C130.642754,42.689228 130.114888,43.070465 129.469717,43.6863092 L123.897793,48.9649744 L123.897793,39.2287697 C123.897793,37.9970812 122.900712,37 121.669023,37 C120.437335,37 119.440254,37.9970812 119.440254,39.2287697 L119.440254,56.5310612 Z M139.79244,63.364 C142.461099,63.364 143.780765,62.1616374 145.100432,58.9651123 L150.584378,45.7977753 C150.672356,45.5924939 150.78966,45.0939533 150.78966,44.7420423 C150.78966,43.5690056 149.821904,42.689228 148.678194,42.689228 C147.534483,42.689228 146.889313,43.4517019 146.537402,44.3901313 L143.252899,53.5104917 L139.851092,44.3608053 C139.469855,43.3050723 138.824685,42.689228 137.7103,42.689228 C136.478612,42.689228 135.510857,43.5690056 135.510857,44.83002 C135.510857,45.1232792 135.62816,45.563168 135.745464,45.8564271 L141.112107,58.2906162 L140.965477,58.6425273 C140.554914,59.434327 140.173677,59.5809566 139.381878,59.5809566 C139.059293,59.5809566 138.824685,59.5223048 138.443448,59.4050011 C138.267493,59.3463493 138.062211,59.2876974 137.7103,59.2876974 C136.801197,59.2876974 135.950745,60.0208454 135.950745,61.1059043 C135.950745,62.1909633 136.713219,62.7188298 137.358389,62.9534372 C138.091537,63.2173704 138.795359,63.364 139.79244,63.364 Z M153.927533,56.5310612 C153.927533,57.7627497 154.924614,58.7598309 156.156303,58.7598309 C157.387991,58.7598309 158.385072,57.7627497 158.385072,56.5310612 L158.385072,39.2287697 C158.385072,37.9970812 157.387991,37 156.156303,37 C154.924614,37 153.927533,37.9970812 153.927533,39.2287697 L153.927533,56.5310612 Z M162.520027,39.1701179 C162.520027,40.4604583 163.605086,41.281584 165.01273,41.281584 C166.420374,41.281584 167.505433,40.4604583 167.505433,39.1701179 L167.505433,39.1114661 C167.505433,37.8211257 166.420374,37.0293259 165.01273,37.0293259 C163.605086,37.0293259 162.520027,37.8211257 162.520027,39.1114661 L162.520027,39.1701179 Z M162.78396,56.5310612 C162.78396,57.7627497 163.781041,58.7598309 165.01273,58.7598309 C166.244418,58.7598309 167.241499,57.7627497 167.241499,56.5310612 L167.241499,44.9179978 C167.241499,43.6863092 166.244418,42.689228 165.01273,42.689228 C163.781041,42.689228 162.78396,43.6863092 162.78396,44.9179978 L162.78396,56.5310612 Z M171.435106,56.5310612 C171.435106,57.7627497 172.432187,58.7598309 173.663875,58.7598309 C174.895564,58.7598309 175.892645,57.7627497 175.892645,56.5310612 L175.892645,49.815426 C175.892645,47.70396 176.977704,46.618901 178.678607,46.618901 C180.379511,46.618901 181.376592,47.70396 181.376592,49.815426 L181.376592,56.5310612 C181.376592,57.7627497 182.373673,58.7598309 183.605362,58.7598309 C184.83705,58.7598309 185.834131,57.7627497 185.834131,56.5310612 L185.834131,48.407782 C185.834131,44.8006941 183.869295,42.5719244 180.496814,42.5719244 C178.238719,42.5719244 176.919052,43.774287 175.892645,45.0939533 L175.892645,44.9179978 C175.892645,43.6863092 174.895564,42.689228 173.663875,42.689228 C172.432187,42.689228 171.435106,43.6863092 171.435106,44.9179978 L171.435106,56.5310612 Z M193.31224,49.4928409 L200.027875,49.4928409 C199.763942,47.4986785 198.590905,46.1496863 196.714047,46.1496863 C194.866514,46.1496863 193.664151,47.4693526 193.31224,49.4928409 Z M202.608556,57.0296018 C201.230238,58.2026385 199.441357,58.9357864 197.153935,58.9357864 C192.432463,58.9357864 188.942679,55.6219577 188.942679,50.8125072 L188.942679,50.7538554 C188.942679,46.26699 192.139204,42.5719244 196.714047,42.5719244 C201.963386,42.5719244 204.280133,46.8828343 204.280133,50.1380111 C204.280133,51.4283515 203.37103,52.2788031 202.197993,52.2788031 L193.370892,52.2788031 C193.810781,54.3022914 195.218425,55.3580245 197.212587,55.3580245 C198.444276,55.3580245 199.470683,54.9767875 200.379786,54.3022914 C200.702372,54.0676841 200.995631,53.9503804 201.464845,53.9503804 C202.461927,53.9503804 203.195075,54.7128543 203.195075,55.7099355 C203.195075,56.2964538 202.931141,56.7363426 202.608556,57.0296018 Z" id="Skyline"></path>
        </g>
    </g>
</svg>